<?xml version="1.0" encoding="UTF-8"?><svg id="Artwork" xmlns="http://www.w3.org/2000/svg" viewBox="0 0 1708 470"><defs><style>.cls-1{fill:none;}.cls-2{fill:#ff002d;}</style></defs><path class="cls-2" d="M750.05,175.06c-25.53,0-45.3,7.76-59.82,23.78-11.76-15.77-29.53-23.78-53.31-23.78-21.27,0-38.29,7.01-49.81,20.52v-17.27h-35.54v125.14h37.54v-81.59c7.26-9.76,20.02-14.77,37.79-14.77,25.78,0,37.79,10.01,37.79,32.04v64.32h37.54v-81.59c7.26-9.76,20.02-14.77,37.79-14.77,25.78,0,37.79,10.01,37.79,32.04v64.32h37.54v-64.57c0-40.05-24.28-63.82-65.32-63.82Z"/><path class="cls-2" d="M966.3,195.58c-13.52-12.76-35.29-20.52-58.07-20.52-43.3,0-74.08,27.28-74.08,65.82s30.79,65.82,74.08,65.82c22.78,0,44.55-7.76,58.07-20.52v17.27h35.54v-125.14h-35.54v17.27ZM964.29,257.4c-10.51,11.26-27.28,17.27-48.31,17.27-27.78,0-44.3-12.76-44.3-33.79s16.52-33.79,44.3-33.79c21.02,0,37.79,6.01,48.31,17.27v33.04Z"/><path class="cls-2" d="M1360.99,195.58v-17.27h-35.54v125.14h37.54v-81.59c6.01-10.01,17.52-14.77,36.29-14.77,9.01,0,16.77.75,24.03,2.5l3-32.29c-3.25-1.5-9.51-2.25-18.27-2.25-20.02,0-37.79,7.76-47.05,20.52Z"/><path class="cls-2" d="M1569.98,264.91c-14.27,7.26-36.04,11.76-55.56,11.76-32.54,0-47.55-7.76-50.06-25.78h114.63c1-7.01,1.5-11.26,1.5-16.52,0-35.04-29.53-59.32-72.33-59.32-50.06,0-79.34,24.03-79.34,65.57s29.78,66.07,83.35,66.07c29.78,0,57.06-7.51,71.08-18.02l-13.27-23.78ZM1508.16,202.59c23.78,0,37.29,8.26,39.8,24.28h-83.6c2.75-17.02,16.02-24.28,43.8-24.28Z"/><path class="cls-2" d="M1213.33,179.56v123.89h37.54v-95.11h55.81v-30.03h-55.81v-2.5c0-16.27,8.76-22.53,31.54-22.53,7.26,0,20.27,1.25,35.04,3.5l2.5-26.53c-12.26-3.5-25.78-5.26-41.3-5.26-43.55,0-65.32,18.02-65.32,54.56Z"/><path class="cls-2" d="M1120.47,175.06c-22.78,0-44.55,7.76-58.07,20.52v-17.27h-35.54v166.69h37.54v-58.82c13.01,12.76,34.04,20.52,56.06,20.52,43.3,0,74.08-27.28,74.08-65.82s-30.78-65.82-74.08-65.82ZM1112.71,274.67c-21.02,0-37.79-6.01-48.3-17.27v-33.04c10.51-11.26,27.28-17.27,48.3-17.27,27.78,0,44.3,12.76,44.3,33.79s-16.52,33.79-44.3,33.79Z"/><path class="cls-2" d="M364.36,181.81c0-31.54-25.28-56.81-57.07-56.81s-57.32,25.03-57.32,56.81c0,29.53,16.02,58.57,45.05,82.34l-1,.5c-81.34-40.55-116.88-54.31-140.41-54.31-16.77,0-28.53,11.76-28.53,28.28,0,34.54,42.05,68.08,85.35,68.08,73.58,0,153.93-65.32,153.93-124.89Z"/><path class="cls-2" d="M460.72,210.35c-27.03,0-61.07,16.27-142.16,68.08,38.79,20.52,62.07,28.28,85.1,28.28,43.3,0,85.35-33.54,85.35-68.08,0-16.52-11.76-28.28-28.28-28.28Z"/><rect class="cls-1" width="1708" height="470"/></svg>